<?xml version="1.0" encoding="UTF-8" standalone="no"?>
<svg
   xmlns:dc="http://purl.org/dc/elements/1.1/"
   xmlns:cc="http://creativecommons.org/ns#"
   xmlns:rdf="http://www.w3.org/1999/02/22-rdf-syntax-ns#"
   xmlns:svg="http://www.w3.org/2000/svg"
   xmlns="http://www.w3.org/2000/svg"
   xmlns:xlink="http://www.w3.org/1999/xlink"
   xmlns:sodipodi="http://sodipodi.sourceforge.net/DTD/sodipodi-0.dtd"
   xmlns:inkscape="http://www.inkscape.org/namespaces/inkscape"
   viewBox="0 0 128 128"
   style="display:inline;enable-background:new"
   version="1.0"
   id="svg11300"
   height="128"
   width="128"
   sodipodi:docname="icon.svg"
   inkscape:version="0.92.4 5da689c313, 2019-01-14">
  <metadata
     id="metadata108">
    <rdf:RDF>
      <cc:Work
         rdf:about="">
        <dc:format>image/svg+xml</dc:format>
        <dc:type
           rdf:resource="http://purl.org/dc/dcmitype/StillImage" />
      </cc:Work>
    </rdf:RDF>
  </metadata>
  <sodipodi:namedview
     pagecolor="#ffffff"
     bordercolor="#666666"
     borderopacity="1"
     objecttolerance="10"
     gridtolerance="10"
     guidetolerance="10"
     inkscape:pageopacity="0"
     inkscape:pageshadow="2"
     inkscape:window-width="3840"
     inkscape:window-height="2038"
     id="namedview43"
     showgrid="false"
     inkscape:zoom="0.39055744"
     inkscape:cx="58.80571"
     inkscape:cy="74.668545"
     inkscape:window-x="0"
     inkscape:window-y="54"
     inkscape:window-maximized="1"
     inkscape:current-layer="layer5">
    <inkscape:grid
       type="xygrid"
       id="grid4690"
       color="#96a8f1"
       opacity="0.67843137"
       empcolor="#ffffff"
       empopacity="1" />
  </sodipodi:namedview>
  <title
     id="title4162">Audiograter Icon</title>
  <defs
     id="defs3">
    <linearGradient
       id="linearGradient4866"
       inkscape:collect="always">
      <stop
         id="stop4860"
         offset="0"
         style="stop-color:#d88345;stop-opacity:0" />
      <stop
         style="stop-color:#edc7ac;stop-opacity:0.13931888"
         offset="0.30000001"
         id="stop4862" />
      <stop
         id="stop4864"
         offset="1"
         style="stop-color:#faf0e9;stop-opacity:0.24148607" />
    </linearGradient>
    <linearGradient
       id="linearGradient4858"
       inkscape:collect="always">
      <stop
         id="stop4852"
         offset="0"
         style="stop-color:#d88345;stop-opacity:0" />
      <stop
         style="stop-color:#edc7ac;stop-opacity:0.13931888"
         offset="0.30000001"
         id="stop4854" />
      <stop
         id="stop4856"
         offset="1"
         style="stop-color:#faf0e9;stop-opacity:0.24148607" />
    </linearGradient>
    <linearGradient
       id="linearGradient4850"
       inkscape:collect="always">
      <stop
         id="stop4844"
         offset="0"
         style="stop-color:#d88345;stop-opacity:0" />
      <stop
         style="stop-color:#edc7ac;stop-opacity:0.13931888"
         offset="0.30000001"
         id="stop4846" />
      <stop
         id="stop4848"
         offset="1"
         style="stop-color:#faf0e9;stop-opacity:0.24148607" />
    </linearGradient>
    <linearGradient
       id="linearGradient4842"
       inkscape:collect="always">
      <stop
         id="stop4836"
         offset="0"
         style="stop-color:#d88345;stop-opacity:0" />
      <stop
         style="stop-color:#edc7ac;stop-opacity:0.13931888"
         offset="0.30000001"
         id="stop4838" />
      <stop
         id="stop4840"
         offset="1"
         style="stop-color:#faf0e9;stop-opacity:0.24148607" />
    </linearGradient>
    <linearGradient
       id="linearGradient4834"
       inkscape:collect="always">
      <stop
         id="stop4828"
         offset="0"
         style="stop-color:#d88345;stop-opacity:0" />
      <stop
         style="stop-color:#edc7ac;stop-opacity:0.13931888"
         offset="0.30000001"
         id="stop4830" />
      <stop
         id="stop4832"
         offset="1"
         style="stop-color:#faf0e9;stop-opacity:0.24148607" />
    </linearGradient>
    <linearGradient
       inkscape:collect="always"
       id="linearGradient4824">
      <stop
         style="stop-color:#d88345;stop-opacity:0"
         offset="0"
         id="stop4820" />
      <stop
         id="stop4826"
         offset="0.30000001"
         style="stop-color:#edc7ac;stop-opacity:0.13931888" />
      <stop
         style="stop-color:#faf0e9;stop-opacity:0.24148607"
         offset="1"
         id="stop4822" />
    </linearGradient>
    <linearGradient
       id="linearGradient4729">
      <stop
         style="stop-color:#07020c;stop-opacity:1"
         offset="0"
         id="stop4725" />
      <stop
         id="stop4735"
         offset="0.23998544"
         style="stop-color:#1b1042;stop-opacity:1" />
      <stop
         id="stop4733"
         offset="0.50172979"
         style="stop-color:#5c2ca2;stop-opacity:1" />
      <stop
         style="stop-color:#cb547b;stop-opacity:1"
         offset="0.8125"
         id="stop4737" />
      <stop
         style="stop-color:#f2bcb9;stop-opacity:1"
         offset="1"
         id="stop4727" />
    </linearGradient>
    <linearGradient
       id="linearGradient1078">
      <stop
         style="stop-color:#3a383c;stop-opacity:1"
         offset="0"
         id="stop1066" />
      <stop
         id="stop1068"
         offset="0.03571429"
         style="stop-color:#646464;stop-opacity:1" />
      <stop
         style="stop-color:#3c3b39;stop-opacity:1"
         offset="0.07136531"
         id="stop1070" />
      <stop
         id="stop1072"
         offset="0.9285714"
         style="stop-color:#3e3d3c;stop-opacity:1" />
      <stop
         style="stop-color:#7b7974;stop-opacity:1"
         offset="0.96428573"
         id="stop1074" />
      <stop
         style="stop-color:#373739;stop-opacity:1"
         offset="1"
         id="stop1076" />
    </linearGradient>
    <linearGradient
       id="linearGradient1044">
      <stop
         id="stop1040"
         offset="0"
         style="stop-color:#f096c4;stop-opacity:1" />
      <stop
         id="stop1042"
         offset="1"
         style="stop-color:#b74fca;stop-opacity:0" />
    </linearGradient>
    <linearGradient
       id="linearGradient1034">
      <stop
         style="stop-color:#fbccc0;stop-opacity:0.05882353"
         offset="0"
         id="stop1030" />
      <stop
         style="stop-color:#043bbd;stop-opacity:0.86818182"
         offset="1"
         id="stop1032" />
    </linearGradient>
    <linearGradient
       id="linearGradient6826">
      <stop
         id="stop6822"
         offset="0"
         style="stop-color:#ace685;stop-opacity:1" />
      <stop
         id="stop6824"
         offset="1"
         style="stop-color:#4a86cf;stop-opacity:1" />
    </linearGradient>
    <radialGradient
       r="225"
       fy="-60.347851"
       fx="106.66667"
       cy="-60.347851"
       cx="106.66667"
       gradientTransform="matrix(0.21428571,0,0,0.32237036,9.1428574,65.58768)"
       gradientUnits="userSpaceOnUse"
       id="radialGradient1018"
       xlink:href="#linearGradient6826" />
    <radialGradient
       r="225"
       fy="218.27841"
       fx="276.58823"
       cy="218.27841"
       cx="276.58823"
       gradientTransform="matrix(0.30902152,-0.05687513,0.10666668,0.57955553,-36.754745,-28.373476)"
       gradientUnits="userSpaceOnUse"
       id="radialGradient1020"
       xlink:href="#linearGradient1034" />
    <radialGradient
       r="225"
       fy="86.747528"
       fx="317.76471"
       cy="86.747528"
       cx="317.76471"
       gradientTransform="matrix(0.38857143,0,0,0.2757274,-35.474283,-101.78533)"
       gradientUnits="userSpaceOnUse"
       id="radialGradient1038"
       xlink:href="#linearGradient1044" />
    <linearGradient
       y2="-449.39401"
       x2="536.59589"
       y1="-449.39401"
       x1="88.595886"
       gradientTransform="matrix(0.25,0,0,0.25,-14.148972,220.3485)"
       gradientUnits="userSpaceOnUse"
       id="linearGradient1064"
       xlink:href="#linearGradient1078" />
    <linearGradient
       gradientUnits="userSpaceOnUse"
       y2="44"
       x2="464"
       y1="44"
       x1="48"
       id="linearGradient965"
       xlink:href="#linearGradient1001" />
    <linearGradient
       id="linearGradient1001">
      <stop
         id="stop989"
         offset="0"
         style="stop-color:#77767b;stop-opacity:1" />
      <stop
         style="stop-color:#c0bfbc;stop-opacity:1"
         offset="0.05"
         id="stop991" />
      <stop
         id="stop993"
         offset="0.09999998"
         style="stop-color:#9a9996;stop-opacity:1" />
      <stop
         style="stop-color:#9a9996;stop-opacity:1"
         offset="0.89999938"
         id="stop995" />
      <stop
         id="stop997"
         offset="0.94999999"
         style="stop-color:#c0bfbc;stop-opacity:1" />
      <stop
         id="stop999"
         offset="1"
         style="stop-color:#77767b;stop-opacity:1" />
    </linearGradient>
    <radialGradient
       gradientUnits="userSpaceOnUse"
       gradientTransform="matrix(-4.7272726,7.935912e-7,-3.0301491e-7,-1.6363636,238.54547,49.766183)"
       r="44"
       fy="194.19048"
       fx="63.999996"
       cy="194.19048"
       cx="63.999996"
       id="radialGradient1030"
       xlink:href="#linearGradient1020" />
    <linearGradient
       id="linearGradient1020">
      <stop
         id="stop1016"
         offset="0"
         style="stop-color:#ffffff;stop-opacity:1;" />
      <stop
         id="stop1018"
         offset="1"
         style="stop-color:#ffffff;stop-opacity:0.09411765" />
    </linearGradient>
    <linearGradient
       gradientUnits="userSpaceOnUse"
       y2="269.13693"
       x2="70.346565"
       y1="245.39511"
       x1="70.346565"
       id="linearGradient1950"
       xlink:href="#linearGradient1948" />
    <linearGradient
       id="linearGradient1948">
      <stop
         id="stop1944"
         offset="0"
         style="stop-color:#2d2839;stop-opacity:1;" />
      <stop
         id="stop1946"
         offset="1"
         style="stop-color:#282433;stop-opacity:1" />
    </linearGradient>
    <linearGradient
       inkscape:collect="always"
       xlink:href="#linearGradient4729"
       id="linearGradient4723"
       x1="64"
       y1="28"
       x2="64"
       y2="96"
       gradientUnits="userSpaceOnUse" />
    <radialGradient
       inkscape:collect="always"
       xlink:href="#linearGradient1044"
       id="radialGradient4741"
       cx="96"
       cy="-98.705894"
       fx="96"
       fy="-98.705894"
       r="48"
       gradientTransform="matrix(-1.625,-9.4935878e-8,5.8422079e-8,-1,252.00001,-186.70588)"
       gradientUnits="userSpaceOnUse" />
    <linearGradient
       inkscape:collect="always"
       xlink:href="#linearGradient4866"
       id="linearGradient4776"
       x1="15.288589"
       y1="38.322147"
       x2="21.753916"
       y2="96.890381"
       gradientUnits="userSpaceOnUse"
       gradientTransform="translate(-2)" />
    <linearGradient
       inkscape:collect="always"
       xlink:href="#linearGradient4858"
       id="linearGradient4778"
       x1="15.288589"
       y1="38.322147"
       x2="21.753916"
       y2="96.890381"
       gradientUnits="userSpaceOnUse"
       gradientTransform="translate(-2)" />
    <linearGradient
       inkscape:collect="always"
       xlink:href="#linearGradient4850"
       id="linearGradient4780"
       x1="15.288589"
       y1="38.322147"
       x2="21.753916"
       y2="96.890381"
       gradientUnits="userSpaceOnUse"
       gradientTransform="translate(-2)" />
    <linearGradient
       inkscape:collect="always"
       xlink:href="#linearGradient4842"
       id="linearGradient4782"
       x1="15.288589"
       y1="38.322147"
       x2="21.753916"
       y2="96.890381"
       gradientUnits="userSpaceOnUse"
       gradientTransform="translate(-2)" />
    <linearGradient
       inkscape:collect="always"
       xlink:href="#linearGradient4834"
       id="linearGradient4784"
       x1="15.288589"
       y1="38.322147"
       x2="21.753916"
       y2="96.890381"
       gradientUnits="userSpaceOnUse"
       gradientTransform="translate(94)" />
    <linearGradient
       inkscape:collect="always"
       xlink:href="#linearGradient4824"
       id="linearGradient4818"
       gradientUnits="userSpaceOnUse"
       x1="15.288589"
       y1="38.322147"
       x2="21.753916"
       y2="96.890381"
       gradientTransform="translate(-2)" />
  </defs>
  <g
     inkscape:groupmode="layer"
     id="layer2"
     inkscape:label="Base"
     sodipodi:insensitive="true"
     style="display:inline">
    <rect
       style="display:inline;enable-background:new;opacity:1;vector-effect:none;fill:url(#linearGradient1064);fill-opacity:1;stroke:none;stroke-width:0.25;stroke-linecap:butt;stroke-linejoin:miter;stroke-miterlimit:4;stroke-dasharray:none;stroke-dashoffset:0;stroke-opacity:1;marker:none;marker-start:none;marker-mid:none;marker-end:none;paint-order:normal"
       id="rect1048"
       width="112.00001"
       height="76"
       x="7.9999952"
       y="32"
       rx="7.9999995"
       ry="8" />
    <text
       id="text850"
       y="-176"
       x="-72"
       style="display:inline;enable-background:new;font-style:normal;font-weight:normal;font-size:40px;line-height:1.25;font-family:sans-serif;letter-spacing:0px;word-spacing:0px;fill:#000000;fill-opacity:1;stroke:none"
       xml:space="preserve"><tspan
         y="-140.60938"
         x="-72"
         id="tspan848" /></text>
    <rect
       ry="8"
       rx="7.9999995"
       y="20.000015"
       x="7.9999952"
       height="84"
       width="112.00001"
       id="rect929-36-9"
       style="display:inline;enable-background:new;opacity:1;vector-effect:none;fill:#54514e;fill-opacity:1;stroke:none;stroke-width:0.25;stroke-linecap:butt;stroke-linejoin:miter;stroke-miterlimit:4;stroke-dasharray:none;stroke-dashoffset:0;stroke-opacity:1;marker:none;marker-start:none;marker-mid:none;marker-end:none;paint-order:normal" />
    <rect
       ry="4"
       y="24.000015"
       x="12"
       height="76"
       width="104"
       id="rect946-0-7"
       style="display:inline;enable-background:new;opacity:1;vector-effect:none;fill:#241f31;fill-opacity:1;stroke:none;stroke-width:0.01129821px;stroke-linecap:butt;stroke-linejoin:miter;stroke-miterlimit:4;stroke-dasharray:none;stroke-dashoffset:0;stroke-opacity:1;marker:none;marker-start:none;marker-mid:none;marker-end:none;paint-order:normal"
       rx="4" />
    <rect
       style="display:inline;enable-background:new;opacity:1;vector-effect:none;fill:url(#linearGradient4723);fill-opacity:1;stroke:none;stroke-width:0.50000006;stroke-linecap:butt;stroke-linejoin:bevel;stroke-miterlimit:4;stroke-dasharray:0.49999998, 1.00000000999999994;stroke-dashoffset:0;stroke-opacity:0.94881891;marker:none;marker-start:none;marker-mid:none;marker-end:none;paint-order:normal"
       id="rect1012"
       width="96"
       height="68"
       x="16"
       y="28" />
    <rect
       transform="scale(1,-1)"
       style="display:inline;enable-background:new;opacity:0.5;vector-effect:none;fill:url(#radialGradient4741);fill-opacity:1;stroke:none;stroke-width:0.50000006;stroke-linecap:butt;stroke-linejoin:bevel;stroke-miterlimit:4;stroke-dasharray:0.49999998, 1.00000000999999994;stroke-dashoffset:0;stroke-opacity:0.94881891;marker:none;marker-start:none;marker-mid:none;marker-end:none;paint-order:normal"
       id="rect1036"
       width="96"
       height="68"
       x="16"
       y="-96" />
    <rect
       y="28"
       x="16"
       height="68"
       width="96"
       id="rect1014"
       style="display:inline;enable-background:new;opacity:0.5;vector-effect:none;fill:url(#radialGradient1020);fill-opacity:1;stroke:none;stroke-width:0.50000006;stroke-linecap:butt;stroke-linejoin:bevel;stroke-miterlimit:4;stroke-dasharray:0.49999998, 1.00000000999999994;stroke-dashoffset:0;stroke-opacity:0.94881891;marker:none;marker-start:none;marker-mid:none;marker-end:none;paint-order:normal" />
    <rect
       style="display:inline;enable-background:new;fill:#dc3d8b;fill-opacity:1;fill-rule:evenodd;stroke:#000000;stroke-width:7.55905533;stroke-linecap:square;stroke-miterlimit:4;stroke-dasharray:none;stroke-opacity:1"
       id="rect4731"
       width="0"
       height="0"
       x="0"
       y="0" />
  </g>
  <g
     inkscape:groupmode="layer"
     id="layer1"
     inkscape:label="Grating">
    <rect
       style="fill:#000000;fill-opacity:0.08978331;fill-rule:evenodd;stroke:none;stroke-width:7.55905533;stroke-linecap:square;stroke-miterlimit:4;stroke-dasharray:none;stroke-opacity:1"
       id="rect874"
       width="2"
       height="68"
       x="32"
       y="28" />
    <rect
       style="display:inline;fill:url(#linearGradient4782);fill-opacity:1;fill-rule:evenodd;stroke:none;stroke-width:7.55905533;stroke-linecap:square;stroke-miterlimit:4;stroke-dasharray:none;stroke-opacity:1;enable-background:new"
       id="rect874-3-6-7-5"
       width="2"
       height="68"
       x="30"
       y="28" />
    <rect
       style="fill:#000000;fill-opacity:0.08978331;fill-rule:evenodd;stroke:none;stroke-width:7.55905533;stroke-linecap:square;stroke-miterlimit:4;stroke-dasharray:none;stroke-opacity:1"
       id="rect874-5"
       width="2"
       height="68"
       x="48"
       y="28" />
    <rect
       style="display:inline;fill:url(#linearGradient4780);fill-opacity:1;fill-rule:evenodd;stroke:none;stroke-width:7.55905533;stroke-linecap:square;stroke-miterlimit:4;stroke-dasharray:none;stroke-opacity:1;enable-background:new"
       id="rect874-3-6-7-5-6"
       width="2"
       height="68"
       x="46"
       y="28" />
    <rect
       style="fill:#000000;fill-opacity:0.08978331;fill-rule:evenodd;stroke:none;stroke-width:7.55905533;stroke-linecap:square;stroke-miterlimit:4;stroke-dasharray:none;stroke-opacity:1"
       id="rect874-5-9"
       width="2"
       height="68"
       x="64"
       y="28" />
    <rect
       style="display:inline;fill:url(#linearGradient4778);fill-opacity:1;fill-rule:evenodd;stroke:none;stroke-width:7.55905533;stroke-linecap:square;stroke-miterlimit:4;stroke-dasharray:none;stroke-opacity:1;enable-background:new"
       id="rect874-3-6-7-5-6-1"
       width="2"
       height="68"
       x="62"
       y="28" />
    <rect
       style="fill:#000000;fill-opacity:0.08978331;fill-rule:evenodd;stroke:none;stroke-width:7.55905533;stroke-linecap:square;stroke-miterlimit:4;stroke-dasharray:none;stroke-opacity:1"
       id="rect874-5-9-7"
       width="2"
       height="68"
       x="80"
       y="28" />
    <rect
       style="display:inline;fill:url(#linearGradient4776);fill-opacity:1;fill-rule:evenodd;stroke:none;stroke-width:7.55905533;stroke-linecap:square;stroke-miterlimit:4;stroke-dasharray:none;stroke-opacity:1;enable-background:new"
       id="rect874-3-6-7-5-6-1-0"
       width="2"
       height="68"
       x="78"
       y="28" />
    <rect
       style="fill:#000000;fill-opacity:0.08978331;fill-rule:evenodd;stroke:none;stroke-width:7.55905533;stroke-linecap:square;stroke-miterlimit:4;stroke-dasharray:none;stroke-opacity:1"
       id="rect874-5-9-7-3"
       width="2"
       height="68"
       x="96"
       y="28" />
    <rect
       style="display:inline;fill:url(#linearGradient4818);fill-opacity:1;fill-rule:evenodd;stroke:none;stroke-width:7.55905533;stroke-linecap:square;stroke-miterlimit:4;stroke-dasharray:none;stroke-opacity:1;enable-background:new"
       id="rect874-3-6-7-5-6-1-0-6"
       width="2"
       height="68"
       x="94"
       y="28" />
    <rect
       style="display:inline;fill:#000000;fill-opacity:0.15170279;fill-rule:evenodd;stroke:none;stroke-width:7.55905533;stroke-linecap:square;stroke-miterlimit:4;stroke-dasharray:none;stroke-opacity:1;enable-background:new"
       id="rect874-0"
       width="2"
       height="68"
       x="16"
       y="28" />
    <rect
       style="display:inline;fill:url(#linearGradient4784);fill-opacity:1;fill-rule:evenodd;stroke:none;stroke-width:7.55905533;stroke-linecap:square;stroke-miterlimit:4;stroke-dasharray:none;stroke-opacity:1;enable-background:new"
       id="rect874-3-6-7-5-62"
       width="2"
       height="68"
       x="110"
       y="28" />
  </g>
  <g
     inkscape:groupmode="layer"
     id="layer5"
     inkscape:label="Cutout"
     style="display:none">
    <path
       style="display:inline;fill:#000000;fill-opacity:0.13636367;fill-rule:evenodd;stroke:none;stroke-width:6.55915737;stroke-linecap:square;stroke-miterlimit:4;stroke-dasharray:none;stroke-opacity:1;enable-background:new"
       d="m 16,28 v 38 h 1 V 28 Z m 2,0 v 59 5 2 h -1 v -2 h -1 v 2 2 h 96 v -2 h -1 v -3 h -1 v 2 1 h -1 v -1 -2 h -1 v 2 1 h -1 v -1 -2 h -1 v 2 1 h -1 v -1 -6 h -1 v 6 1 h -1 v -1 -2 h -1 v 2 1 h -1 v -1 -2 h -1 v 2 1 h -1 v -1 -2 h -1 v 3 h -1 v -3 -1 -3 h -1 v 7 H 95 V 76 H 94 V 94 H 93 V 76 H 92 V 94 H 91 V 76 h -1 v 11 6 1 h -1 v -1 -2 h -1 v 2 1 h -1 v -1 -7 h -1 v 1 6 1 h -1 v -1 -2 h -1 v 3 h -1 v -1 h -1 v 1 h -1 v -8 h -1 v 4 1 3 h -1 v -3 h -1 v 2 1 h -1 v -1 -2 h -1 v 2 1 h -1 v -1 -2 h -1 v 2 1 h -1 v -1 -3 h -1 v 4 H 71 V 90 89 70 h -1 v 1 15 1 3 1 3 h -1 v -1 h -1 v 1 h -1 v -2 h -1 v 2 h -1 v -8 -2 h -1 v 8 2 H 63 V 92 82 80 79 78 h -1 v 6 9 1 h -1 v -1 -2 h -1 v 2 1 H 59 V 93 82 h -1 v 4 7 1 h -1 v -1 -7 -4 -2 -4 h -1 v 18 h -1 v -3 h -1 v 3 h -1 v -1 h -1 v 1 h -1 v -3 h -1 v 2 1 H 49 V 93 83 76 h -1 v 11 6 1 H 47 V 93 87 76 h -1 v 11 6 1 H 45 V 93 87 76 h -1 v 11 1 2 1 3 h -1 v -3 h -1 v 3 h -1 v -1 h -1 v 1 h -1 v -1 h -1 v 1 h -1 v -9 h -1 v 2 6 1 h -1 v -1 -6 -2 h -1 v 2 1 2 1 3 h -1 v -3 h -1 v 2 1 h -1 v -1 -2 h -1 v 3 h -1 v -1 h -1 v 1 h -1 v -1 h -1 v 1 h -1 v -1 h -1 v 1 h -1 v -3 h -1 v 1 2 H 21 V 92 84 80 79 61 28 h -1 v 42 15 2 5 2 H 19 V 92 87 85 70 28 Z m 4,0 v 33 18 1 4 h 1 V 28 Z m 2,0 v 45 h 1 V 28 Z m 2,0 v 45 h 1 V 28 Z m 2,0 v 45 h 1 V 28 Z m 2,0 v 45 h 1 V 28 Z m 2,0 v 45 h 1 V 28 Z m 2,0 v 45 h 1 V 28 Z m 2,0 v 45 h 1 V 28 Z m 2,0 v 45 h 1 V 28 Z m 2,0 v 38 h 1 V 28 Z m 2,0 v 38 h 1 V 28 Z m 2,0 v 38 h 1 V 28 Z m 2,0 v 38 h 1 V 28 Z m 2,0 v 38 h 1 V 28 Z m 2,0 v 38 h 1 V 28 Z m 2,0 v 38 h 1 V 28 Z m 2,0 v 38 h 1 V 28 Z m 2,0 v 38 h 1 V 28 Z m 2,0 v 38 h 1 V 28 Z m 2,0 v 38 h 1 V 28 Z m 2,0 v 38 1 4 1 1 h 1 V 72 71 28 Z m 2,0 v 43 1 1 1 1 h 1 V 72 71 67 66 28 Z m 2,0 v 38 h 1 V 28 Z m 2,0 v 38 h 1 V 59 58 28 Z m 2,0 v 30 h 1 V 28 Z m 2,0 v 30 h 1 V 28 Z m 2,0 v 30 h 1 V 28 Z m 2,0 v 16 h 1 V 28 Z m 2,0 v 16 h 0.572266 v 1 H 78 v 17 h 1 V 28 Z m 2,0 v 19 h 1 V 28 Z m 2,0 v 19 h 1 V 43 42 28 Z m 2,0 v 8 h 1 v -8 z m 2,0 v 8 1 7 h 1 v -7 -1 -8 z m 2,0 v 8 h 1 v -8 z m 2,0 v 8 h 1 v -8 z m 2,0 v 8 1 7 1 5 h 1 V 28 Z m 2,0 v 22 h 1 V 32 28 Z m 2,0 v 4 44 6 h 1 V 28 Z m 2,0 v 54 1 3 1 3 h 1 V 85 82 81 28 Z m 2,0 v 53 h 1 V 28 Z m 2,0 v 57 1 h 1 V 85 82 81 79 78 76 32 28 Z m 2,0 v 4 44 2 h 1 V 76 32 28 Z m 2,0 v 4 44 2 1 h 1 V 28 Z m 2,0 v 51 2 h 1 V 28 Z m 2,0 v 53 1 3 5 h 1 V 88 87 28 Z m -26,9 v 5 1 1 h 1 v -7 z m 4,0 v 7 h 1 v -7 z m 2,0 v 7 h 1 v -7 z m -14,8 v 13 1 7 h 1 V 45 Z m 8,0 v 2 h 1 v -2 z m 2,0 v 8 h 1 v -8 z m 2,0 v 8 h 1 v -2 -1 -5 z m 2,0 v 5 h 1 v -5 z m -10,3 v 2 h 1 v -2 z m 2,0 v 2 h 1 v -2 z m 2,0 v 2 2 1 h 1 v -5 z m -4,3 v 2 h 1 v -2 z m 10,0 v 2 h 1 v -2 z m 2,0 v 2 1 2 h 1 v -5 z m 2,0 v 5 1 16 1 1 h 1 V 51 Z m -12,1 v 1 1 2 1 13 1 4 h 1 v -8 -1 -4 -1 -2 -1 -4 -1 -1 z m -2,2 v 2 h 1 v -2 z m 4,0 v 4 1 h 1 v -5 z m 2,0 v 5 h 1 v -5 z m 2,0 v 5 h 1 v -2 -1 -2 z m 2,0 v 2 h 1 v -2 z m -10,3 v 5 2 2 1 3 h 1 V 57 Z m 10,0 v 2 h 1 v -2 z m 2,0 v 2 1 6 1 3 1 2 h 1 V 57 Z m -22,2 v 7 1 2 h 1 V 59 Z m 2,0 v 10 h 1 V 59 Z m 2,0 v 10 h 1 V 59 Z m 10,1 v 1 1 4 h 1 v -6 z m 2,0 v 6 h 1 v -6 z m 2,0 v 6 h 1 v -6 z m 2,0 v 6 h 1 v -6 z m -12,4 v 2 h 1 v -2 z m -38,3 v 6 h 1 v -6 z m 2,0 v 6 h 1 v -6 z m 2,0 v 6 h 1 v -6 z m 2,0 v 6 h 1 v -6 z m 2,0 v 6 h 1 v -6 z m 2,0 v 6 h 1 v -6 z m 2,0 v 6 h 1 v -6 z m 2,0 v 6 h 1 v -6 z m 2,0 v 6 h 1 v -6 z m 2,0 v 6 h 1 v -6 z m 2,0 v 6 h 1 v -1 -1 -4 z m 6,0 v 3 h 1 v -3 z m 2,0 v 3 h 0.380859 V 69 H 69 v -2 z m 8,0 v 2 1 3 h 1 v -6 z m 2,0 v 4 h 1 v -4 z m 6,0 v 3 h 1 v -3 z m 2,0 v 3 h 1 v -3 z m 2,0 v 3 h 1 v -3 z m 2,0 v 3 h 1 v -3 z m -18,3 v 3 h 1 v -3 z m 2,0 v 3 h 1 v -3 z m -8,1 v 1 3 h 1 v -4 z m 2,0 v 4 h 1 v -4 z m 12,0 v 1 3 h 1 v -4 z m 4,0 v 4 h 1 v -4 z m 2,0 v 4 h 1 v -4 z m 2,0 v 4 h 1 v -1 -1 -2 z m 2,0 v 2 h 1 v -2 z m -12,1 v 1 1 1 h 1 v -3 z m -54,2 v 1 h 1 v -1 z m 2,0 v 1 h 1 v -1 z m 2,0 v 1 h 1 v -1 z m 2,0 v 1 h 1 v -1 z m 2,0 v 1 h 1 v -1 z m 2,0 v 1 h 1 v -1 z m 2,0 v 1 h 1 v -1 z m 2,0 v 1 h 1 v -1 z m 2,0 v 1 h 1 v -1 z m 2,0 v 1 h 1 v -1 z m 2,0 v 1 h 1 v -1 z m 2,0 v 1 h 1 v -1 z m 2,0 v 1 h 1 v -1 z m 2,0 v 1 h 1 v -1 z m 2,0 v 1 h 1 v -1 z m 2,0 v 1 h 1 v -1 z m 2,0 v 1 h 1 v -1 z m 2,0 v 1 h 1 v -1 z m 2,0 v 1 h 1 v -1 z m 2,0 v 1 h 1 v -1 z m 10,0 v 1 h 1 v -1 z m 2,0 v 1 h 1 v -1 z m 2,0 v 1 h 1 v -1 z m 14,0 v 1 h 1 v -1 z m 2,0 v 1 h 1 v -1 z m -68,2 v 8 1 2 h 1 V 76 Z m 2,0 v 11 h 1 V 76 Z m 2,0 v 12 h 1 V 76 Z m 2,0 v 4 h 1 v -4 z m 2,0 v 4 2 h 1 v -6 z m 2,0 v 6 h 1 v -6 z m 2,0 v 6 h 1 v -6 z m 2,0 v 6 1 1 1 2 h 1 V 76 Z m 2,0 v 5 h 1 v -5 z m 2,0 v 5 h 1 v -5 z m 8,0 v 7 5 h 1 V 76 Z m 2,0 v 12 h 1 V 76 Z m 2,0 v 12 h 1 V 76 Z m 4,0 v 4 h 1 v -4 z m 2,0 v 1 h 1 v -1 z m 2,0 v 1 h 1 v -1 z m 2,0 v 3 h 1 v -3 z m 2,0 v 3 1 1 h 1 v -5 z m 2,0 v 5 1 4 1 h 1 V 86 76 Z m 4,0 v 13 h 1 v -2 -1 -1 -9 z m 2,0 v 9 h 1 v -9 z m 2,0 v 9 h 1 v -3 -3 -3 z m 2,0 v 3 3 3 h 1 v -3 -3 -3 z m 2,0 v 3 3 3 h 1 v -3 -3 -3 z m 2,0 v 3 3 3 h 1 v -3 -3 -3 z m 2,0 v 3 3 3 h 1 v -9 z m 2,0 v 9 h 1 v -9 z m 2,0 v 9 1 4 h 1 V 87 76 Z m -28,2 v 2 2 5 h 1 v -3 -6 z m 44,1 v 2 h 1 v -2 z m -40,1 v 2 1 h 1 v -1 -1 -1 z m 42,1 v 1 3 5 h 1 v -5 -4 z m -40,1 v 2 2 h 1 v -4 z m 34,0 v 3 5 h 1 v -5 -3 z m 4,0 v 3 1 h 1 v -1 -3 z m 4,0 v 3 1 h 1 v -1 -3 z m -76,1 v 1 h 1 v -1 z m 2,0 v 1 h 1 v -1 z m 2,0 v 1 h 1 v -1 z m 4,0 v 1 h 1 v -1 z m 2,0 v 1 h 1 v -1 z m 54,0 v 3 h 1 v -3 z m -80,2 v 2 h 1 v -2 z m 6,0 v 2 h 1 v -2 z m 10,0 v 2 h 1 v -2 z m 8,0 v 2 h 1 v -2 z m 2,0 v 2 h 1 v -2 z m 32,1 v 1 3 h 1 v -3 -1 z m 2,0 v 1 3 h 1 v -3 -1 z m 2,0 v 1 3 h 1 v -4 z m 4,0 v 1 h 1 v -1 z m 2,0 v 4 h 1 v -3 -1 z m 18,1 v 3 h 1 v -3 z m 6,0 v 3 h 1 v -3 z m -86,1 v 2 h 1 v -2 z m 10,0 v 2 h 1 v -2 z m 10,0 v 2 h 1 v -2 z m 18,0 v 2 h 1 v -2 z m -10,1 v 1 h 1 v -1 z m 2,0 v 1 h 1 v -1 z m 2,0 v 1 h 1 v -1 z"
       id="rect4743"
       inkscape:connector-curvature="0" />
  </g>
</svg>
